G75*
%MOIN*%
%OFA0B0*%
%FSLAX24Y24*%
%IPPOS*%
%LPD*%
%AMOC8*
5,1,8,0,0,1.08239X$1,22.5*
%
%ADD10R,0.2000X0.0950*%
%ADD11C,0.0520*%
%ADD12C,0.0560*%
%ADD13OC8,0.0850*%
%ADD14C,0.0310*%
%ADD15C,0.0250*%
%ADD16C,0.0120*%
%ADD17C,0.0160*%
D10*
X001650Y007326D03*
X001650Y010726D03*
D11*
X013441Y009566D02*
X013441Y009046D01*
X014441Y009046D02*
X014441Y009566D01*
X015441Y009566D02*
X015441Y009046D01*
X016441Y009046D02*
X016441Y009566D01*
X017441Y009566D02*
X017441Y009046D01*
X018441Y009046D02*
X018441Y009566D01*
X019441Y009566D02*
X019441Y009046D01*
X024698Y009039D02*
X025218Y009039D01*
X025218Y010039D02*
X024698Y010039D01*
X024698Y011039D02*
X025218Y011039D01*
X025218Y012039D02*
X024698Y012039D01*
X019441Y012046D02*
X019441Y012566D01*
X018441Y012566D02*
X018441Y012046D01*
X017441Y012046D02*
X017441Y012566D01*
X016441Y012566D02*
X016441Y012046D01*
X015441Y012046D02*
X015441Y012566D01*
X014441Y012566D02*
X014441Y012046D01*
X013441Y012046D02*
X013441Y012566D01*
X024698Y008039D02*
X025218Y008039D01*
X025218Y007039D02*
X024698Y007039D01*
X024698Y006039D02*
X025218Y006039D01*
X025218Y005039D02*
X024698Y005039D01*
D12*
X016271Y005427D02*
X015711Y005427D01*
X015711Y004427D02*
X016271Y004427D01*
X016271Y003427D02*
X015711Y003427D01*
D13*
X010483Y001755D03*
X007727Y001853D03*
D14*
X005522Y001361D03*
X004814Y001125D03*
X003465Y001597D03*
X003255Y001247D03*
X001995Y001397D03*
X000789Y004729D03*
X001288Y006380D03*
X001681Y006577D03*
X002075Y006380D03*
X002469Y006577D03*
X002863Y006478D03*
X002863Y006971D03*
X003158Y007364D03*
X003552Y007364D03*
X004241Y007364D03*
X004634Y007364D03*
X002863Y007660D03*
X000894Y006577D03*
X007866Y004646D03*
X008338Y004646D03*
X009244Y004237D03*
X009244Y003665D03*
X009744Y003565D03*
X009244Y003071D03*
X012334Y002678D03*
X012649Y002678D03*
X013279Y002835D03*
X013673Y002835D03*
X014067Y002835D03*
X016389Y001223D03*
X016979Y000987D03*
X017668Y000967D03*
X018259Y001263D03*
X018018Y004920D03*
X013970Y006578D03*
X013970Y007149D03*
X013989Y007700D03*
X015503Y007857D03*
X011824Y005515D03*
X010149Y007481D03*
X010149Y007874D03*
X010149Y008819D03*
X010149Y009213D03*
X010149Y010237D03*
X010149Y010630D03*
X008496Y011969D03*
X008102Y011969D03*
X004781Y010821D03*
X004481Y010571D03*
X004111Y010571D03*
X002887Y011126D03*
X002631Y011421D03*
X002218Y011559D03*
X001745Y011441D03*
X001274Y011559D03*
X000821Y011421D03*
X003084Y013004D03*
X003084Y013397D03*
X013377Y013271D03*
X020089Y011361D03*
X021172Y010889D03*
X020030Y010180D03*
X023576Y010949D03*
X029611Y005900D03*
X030111Y005900D03*
X030611Y005900D03*
X031111Y005900D03*
X031111Y005400D03*
X030611Y005400D03*
X030111Y005400D03*
X029611Y005400D03*
X029611Y004900D03*
X030111Y004900D03*
X030611Y004900D03*
X031111Y004900D03*
X031111Y004400D03*
X030611Y004400D03*
X030111Y004400D03*
X029611Y004400D03*
X029611Y003900D03*
X030111Y003900D03*
X030611Y003900D03*
X031111Y003900D03*
D15*
X018018Y004920D02*
X017526Y004427D01*
X015991Y004427D01*
D16*
X017668Y000652D02*
X000789Y000652D01*
X000789Y004729D01*
X005522Y001361D02*
X005522Y001066D01*
X016389Y001066D01*
X016389Y001223D01*
X016841Y001263D01*
X018259Y001263D01*
X017668Y000967D02*
X017668Y000652D01*
X033711Y000652D01*
X033711Y014697D01*
X013377Y014697D01*
X013377Y013271D01*
X020089Y011361D02*
X021172Y010889D01*
X020030Y010180D02*
X021310Y009530D01*
X023180Y009530D01*
X024361Y010908D01*
X024958Y011039D01*
X015503Y007857D02*
X015207Y008152D01*
X014026Y008152D01*
X013441Y008738D01*
X013441Y009306D01*
X004814Y001125D02*
X004893Y000859D01*
X016959Y000859D01*
X016979Y000987D01*
D17*
X016914Y001463D02*
X016907Y001469D01*
X016833Y001463D01*
X016758Y001463D01*
X016751Y001456D01*
X016588Y001441D01*
X016556Y001473D01*
X016447Y001518D01*
X016330Y001518D01*
X016221Y001473D01*
X016138Y001390D01*
X016094Y001282D01*
X016094Y001266D01*
X005802Y001266D01*
X005817Y001302D01*
X005817Y001420D01*
X005773Y001528D01*
X005690Y001611D01*
X005581Y001656D01*
X005464Y001656D01*
X005355Y001611D01*
X005272Y001528D01*
X005227Y001420D01*
X005227Y001302D01*
X005272Y001194D01*
X005322Y001144D01*
X005322Y001059D01*
X005106Y001059D01*
X005109Y001066D01*
X005109Y001184D01*
X005064Y001292D01*
X004981Y001375D01*
X004872Y001420D01*
X004755Y001420D01*
X004647Y001375D01*
X004564Y001292D01*
X004519Y001184D01*
X004519Y001066D01*
X004564Y000958D01*
X004647Y000875D01*
X004684Y000859D01*
X004686Y000852D01*
X000989Y000852D01*
X000989Y004512D01*
X001039Y004562D01*
X001084Y004670D01*
X001084Y004787D01*
X001039Y004896D01*
X000956Y004979D01*
X000848Y005024D01*
X000731Y005024D01*
X000727Y005022D01*
X000727Y014700D01*
X013177Y014700D01*
X013177Y013488D01*
X013127Y013438D01*
X013082Y013329D01*
X013082Y013212D01*
X013127Y013103D01*
X013210Y013020D01*
X013318Y012976D01*
X013435Y012976D01*
X013544Y013020D01*
X013627Y013103D01*
X013672Y013212D01*
X013672Y013329D01*
X013627Y013438D01*
X013577Y013488D01*
X013577Y014497D01*
X033511Y014497D01*
X033511Y000852D01*
X017940Y000852D01*
X017963Y000909D01*
X017963Y001026D01*
X017948Y001063D01*
X018041Y001063D01*
X018092Y001013D01*
X018200Y000968D01*
X018317Y000968D01*
X018426Y001013D01*
X018509Y001096D01*
X018554Y001204D01*
X018554Y001321D01*
X018509Y001430D01*
X018426Y001513D01*
X018317Y001558D01*
X018200Y001558D01*
X018092Y001513D01*
X018041Y001463D01*
X016914Y001463D01*
X016664Y001448D02*
X016581Y001448D01*
X016196Y001448D02*
X008121Y001448D01*
X008279Y001607D02*
X033511Y001607D01*
X033511Y001765D02*
X008292Y001765D01*
X008292Y001619D02*
X007961Y001288D01*
X007493Y001288D01*
X007162Y001619D01*
X007162Y002087D01*
X007493Y002418D01*
X007961Y002418D01*
X008292Y002087D01*
X008292Y001619D01*
X008292Y001924D02*
X033511Y001924D01*
X033511Y002082D02*
X008292Y002082D01*
X008139Y002241D02*
X033511Y002241D01*
X033511Y002399D02*
X007980Y002399D01*
X007474Y002399D02*
X000989Y002399D01*
X000989Y002241D02*
X007315Y002241D01*
X007162Y002082D02*
X000989Y002082D01*
X000989Y001924D02*
X007162Y001924D01*
X007162Y001765D02*
X000989Y001765D01*
X000989Y001607D02*
X005351Y001607D01*
X005239Y001448D02*
X000989Y001448D01*
X000989Y001290D02*
X004563Y001290D01*
X004519Y001131D02*
X000989Y001131D01*
X000989Y000973D02*
X004558Y000973D01*
X005109Y001131D02*
X005322Y001131D01*
X005233Y001290D02*
X005065Y001290D01*
X005694Y001607D02*
X007175Y001607D01*
X007333Y001448D02*
X005806Y001448D01*
X005812Y001290D02*
X007492Y001290D01*
X007962Y001290D02*
X016097Y001290D01*
X017963Y000973D02*
X018188Y000973D01*
X018329Y000973D02*
X033511Y000973D01*
X033511Y001131D02*
X018523Y001131D01*
X018554Y001290D02*
X033511Y001290D01*
X033511Y001448D02*
X018491Y001448D01*
X016509Y003071D02*
X016355Y003007D01*
X015628Y003007D01*
X015473Y003071D01*
X015355Y003189D01*
X015291Y003344D01*
X015291Y003511D01*
X015355Y003665D01*
X015473Y003783D01*
X015628Y003847D01*
X016355Y003847D01*
X016509Y003783D01*
X016627Y003665D01*
X016691Y003511D01*
X016691Y003344D01*
X016627Y003189D01*
X016509Y003071D01*
X016417Y003033D02*
X033511Y003033D01*
X033511Y002875D02*
X000989Y002875D01*
X000989Y003033D02*
X015566Y003033D01*
X015354Y003192D02*
X000989Y003192D01*
X000989Y003350D02*
X015291Y003350D01*
X015291Y003509D02*
X000989Y003509D01*
X000989Y003667D02*
X015357Y003667D01*
X015575Y003826D02*
X000989Y003826D01*
X000989Y003984D02*
X033511Y003984D01*
X033511Y003826D02*
X016408Y003826D01*
X016355Y004007D02*
X016509Y004071D01*
X016600Y004162D01*
X017578Y004162D01*
X017676Y004203D01*
X018113Y004639D01*
X018185Y004669D01*
X018268Y004752D01*
X018313Y004861D01*
X018313Y004978D01*
X018268Y005087D01*
X018185Y005170D01*
X018077Y005215D01*
X017959Y005215D01*
X017851Y005170D01*
X017768Y005087D01*
X017738Y005014D01*
X017416Y004692D01*
X016600Y004692D01*
X016509Y004783D01*
X016355Y004847D01*
X015628Y004847D01*
X015473Y004783D01*
X015355Y004665D01*
X015291Y004511D01*
X015291Y004344D01*
X015355Y004189D01*
X015473Y004071D01*
X015628Y004007D01*
X016355Y004007D01*
X016580Y004143D02*
X033511Y004143D01*
X033511Y004301D02*
X017774Y004301D01*
X017933Y004460D02*
X033511Y004460D01*
X033511Y004618D02*
X018091Y004618D01*
X018278Y004777D02*
X024394Y004777D01*
X024358Y004812D02*
X024298Y004959D01*
X024298Y005119D01*
X024358Y005266D01*
X024471Y005378D01*
X024618Y005439D01*
X025297Y005439D01*
X025444Y005378D01*
X025557Y005266D01*
X025618Y005119D01*
X025618Y004959D01*
X025557Y004812D01*
X025444Y004700D01*
X025297Y004639D01*
X024618Y004639D01*
X024471Y004700D01*
X024358Y004812D01*
X024308Y004935D02*
X018313Y004935D01*
X018261Y005094D02*
X024298Y005094D01*
X024353Y005252D02*
X016653Y005252D01*
X016627Y005189D02*
X016691Y005344D01*
X016691Y005511D01*
X016627Y005665D01*
X016509Y005783D01*
X016355Y005847D01*
X015628Y005847D01*
X015473Y005783D01*
X015355Y005665D01*
X015291Y005511D01*
X015291Y005344D01*
X015355Y005189D01*
X015473Y005071D01*
X015628Y005007D01*
X016355Y005007D01*
X016509Y005071D01*
X016627Y005189D01*
X016531Y005094D02*
X017775Y005094D01*
X017659Y004935D02*
X001000Y004935D01*
X001084Y004777D02*
X015466Y004777D01*
X015336Y004618D02*
X001063Y004618D01*
X000989Y004460D02*
X015291Y004460D01*
X015309Y004301D02*
X000989Y004301D01*
X000989Y004143D02*
X015402Y004143D01*
X016516Y004777D02*
X017500Y004777D01*
X016691Y005411D02*
X024549Y005411D01*
X024618Y005639D02*
X025297Y005639D01*
X025444Y005700D01*
X025557Y005812D01*
X025618Y005959D01*
X025618Y006119D01*
X025557Y006266D01*
X025444Y006378D01*
X025297Y006439D01*
X024618Y006439D01*
X024471Y006378D01*
X024358Y006266D01*
X024298Y006119D01*
X024298Y005959D01*
X024358Y005812D01*
X024471Y005700D01*
X024618Y005639D01*
X024443Y005728D02*
X016565Y005728D01*
X016667Y005569D02*
X033511Y005569D01*
X033511Y005411D02*
X025366Y005411D01*
X025562Y005252D02*
X033511Y005252D01*
X033511Y005094D02*
X025618Y005094D01*
X025607Y004935D02*
X033511Y004935D01*
X033511Y004777D02*
X025521Y004777D01*
X025472Y005728D02*
X033511Y005728D01*
X033511Y005886D02*
X025587Y005886D01*
X025618Y006045D02*
X033511Y006045D01*
X033511Y006203D02*
X025583Y006203D01*
X025461Y006362D02*
X033511Y006362D01*
X033511Y006520D02*
X000727Y006520D01*
X000727Y006362D02*
X024454Y006362D01*
X024333Y006203D02*
X000727Y006203D01*
X000727Y006045D02*
X024298Y006045D01*
X024328Y005886D02*
X000727Y005886D01*
X000727Y005728D02*
X015417Y005728D01*
X015315Y005569D02*
X000727Y005569D01*
X000727Y005411D02*
X015291Y005411D01*
X015329Y005252D02*
X000727Y005252D01*
X000727Y005094D02*
X015451Y005094D01*
X016626Y003667D02*
X033511Y003667D01*
X033511Y003509D02*
X016691Y003509D01*
X016691Y003350D02*
X033511Y003350D01*
X033511Y003192D02*
X016628Y003192D01*
X024358Y006812D02*
X024471Y006700D01*
X024618Y006639D01*
X025297Y006639D01*
X025444Y006700D01*
X025557Y006812D01*
X025618Y006959D01*
X025618Y007119D01*
X025557Y007266D01*
X025444Y007378D01*
X025297Y007439D01*
X024618Y007439D01*
X024471Y007378D01*
X024358Y007266D01*
X024298Y007119D01*
X024298Y006959D01*
X024358Y006812D01*
X024348Y006837D02*
X000727Y006837D01*
X000727Y006679D02*
X024523Y006679D01*
X024298Y006996D02*
X000727Y006996D01*
X000727Y007154D02*
X024312Y007154D01*
X024405Y007313D02*
X000727Y007313D01*
X000727Y007471D02*
X033511Y007471D01*
X033511Y007313D02*
X025510Y007313D01*
X025603Y007154D02*
X033511Y007154D01*
X033511Y006996D02*
X025618Y006996D01*
X025567Y006837D02*
X033511Y006837D01*
X033511Y006679D02*
X025392Y006679D01*
X025297Y007639D02*
X024618Y007639D01*
X024471Y007700D01*
X024358Y007812D01*
X024298Y007959D01*
X024298Y008119D01*
X024358Y008266D01*
X024471Y008378D01*
X024618Y008439D01*
X025297Y008439D01*
X025444Y008378D01*
X025557Y008266D01*
X025618Y008119D01*
X025618Y007959D01*
X025557Y007812D01*
X025444Y007700D01*
X025297Y007639D01*
X025532Y007788D02*
X033511Y007788D01*
X033511Y007630D02*
X015692Y007630D01*
X015670Y007607D02*
X015753Y007690D01*
X015798Y007798D01*
X015798Y007916D01*
X015753Y008024D01*
X015670Y008107D01*
X015561Y008152D01*
X015491Y008152D01*
X015407Y008235D01*
X015290Y008352D01*
X014109Y008352D01*
X013711Y008751D01*
X013780Y008819D01*
X013841Y008966D01*
X013841Y009645D01*
X013780Y009792D01*
X013667Y009905D01*
X013520Y009966D01*
X013361Y009966D01*
X013214Y009905D01*
X013102Y009792D01*
X013041Y009645D01*
X013041Y008966D01*
X013102Y008819D01*
X013214Y008707D01*
X013241Y008696D01*
X013241Y008655D01*
X013358Y008538D01*
X013944Y007952D01*
X015125Y007952D01*
X015208Y007869D01*
X015208Y007798D01*
X015253Y007690D01*
X015336Y007607D01*
X015444Y007562D01*
X015561Y007562D01*
X015670Y007607D01*
X015793Y007788D02*
X024383Y007788D01*
X024303Y007947D02*
X015785Y007947D01*
X015672Y008105D02*
X024298Y008105D01*
X024358Y008264D02*
X015379Y008264D01*
X015361Y008646D02*
X015520Y008646D01*
X015667Y008707D01*
X015780Y008819D01*
X015841Y008966D01*
X015841Y009645D01*
X015780Y009792D01*
X015667Y009905D01*
X015520Y009966D01*
X015361Y009966D01*
X015214Y009905D01*
X015102Y009792D01*
X015041Y009645D01*
X015041Y008966D01*
X015102Y008819D01*
X015214Y008707D01*
X015361Y008646D01*
X015182Y008739D02*
X014700Y008739D01*
X014667Y008707D02*
X014780Y008819D01*
X014841Y008966D01*
X014841Y009645D01*
X014780Y009792D01*
X014667Y009905D01*
X014520Y009966D01*
X014361Y009966D01*
X014214Y009905D01*
X014102Y009792D01*
X014041Y009645D01*
X014041Y008966D01*
X014102Y008819D01*
X014214Y008707D01*
X014361Y008646D01*
X014520Y008646D01*
X014667Y008707D01*
X014182Y008739D02*
X013723Y008739D01*
X013812Y008898D02*
X014069Y008898D01*
X014041Y009056D02*
X013841Y009056D01*
X013841Y009215D02*
X014041Y009215D01*
X014041Y009373D02*
X013841Y009373D01*
X013841Y009532D02*
X014041Y009532D01*
X014059Y009690D02*
X013822Y009690D01*
X013723Y009849D02*
X014158Y009849D01*
X014723Y009849D02*
X015158Y009849D01*
X015059Y009690D02*
X014822Y009690D01*
X014841Y009532D02*
X015041Y009532D01*
X015041Y009373D02*
X014841Y009373D01*
X014841Y009215D02*
X015041Y009215D01*
X015041Y009056D02*
X014841Y009056D01*
X014812Y008898D02*
X015069Y008898D01*
X015700Y008739D02*
X016182Y008739D01*
X016214Y008707D02*
X016361Y008646D01*
X016520Y008646D01*
X016667Y008707D01*
X016780Y008819D01*
X016841Y008966D01*
X016841Y009645D01*
X016780Y009792D01*
X016667Y009905D01*
X016520Y009966D01*
X016361Y009966D01*
X016214Y009905D01*
X016102Y009792D01*
X016041Y009645D01*
X016041Y008966D01*
X016102Y008819D01*
X016214Y008707D01*
X016700Y008739D02*
X017182Y008739D01*
X017214Y008707D02*
X017361Y008646D01*
X017520Y008646D01*
X017667Y008707D01*
X017780Y008819D01*
X017841Y008966D01*
X017841Y009645D01*
X017780Y009792D01*
X017667Y009905D01*
X017520Y009966D01*
X017361Y009966D01*
X017214Y009905D01*
X017102Y009792D01*
X017041Y009645D01*
X017041Y008966D01*
X017102Y008819D01*
X017214Y008707D01*
X017700Y008739D02*
X018182Y008739D01*
X018214Y008707D02*
X018102Y008819D01*
X018041Y008966D01*
X018041Y009645D01*
X018102Y009792D01*
X018214Y009905D01*
X018361Y009966D01*
X018520Y009966D01*
X018667Y009905D01*
X018780Y009792D01*
X018841Y009645D01*
X018841Y008966D01*
X018780Y008819D01*
X018667Y008707D01*
X018520Y008646D01*
X018361Y008646D01*
X018214Y008707D01*
X018700Y008739D02*
X033511Y008739D01*
X033511Y008581D02*
X013881Y008581D01*
X014040Y008422D02*
X024577Y008422D01*
X025338Y008422D02*
X033511Y008422D01*
X033511Y008264D02*
X025558Y008264D01*
X025618Y008105D02*
X033511Y008105D01*
X033511Y007947D02*
X025612Y007947D01*
X023380Y009448D02*
X023327Y009394D01*
X023278Y009337D01*
X023269Y009337D01*
X023263Y009330D01*
X023188Y009330D01*
X023113Y009325D01*
X023106Y009330D01*
X021342Y009330D01*
X021293Y009315D01*
X021262Y009330D01*
X021227Y009330D01*
X021191Y009366D01*
X020133Y009903D01*
X020089Y009885D01*
X019972Y009885D01*
X019863Y009930D01*
X019780Y010013D01*
X019735Y010121D01*
X019735Y010239D01*
X019780Y010347D01*
X019863Y010430D01*
X019972Y010475D01*
X020089Y010475D01*
X020197Y010430D01*
X020280Y010347D01*
X020317Y010259D01*
X021358Y009730D01*
X023088Y009730D01*
X024200Y011028D01*
X024237Y011086D01*
X024253Y011089D01*
X024263Y011101D01*
X024298Y011104D01*
X024298Y011119D01*
X024358Y011266D01*
X024471Y011378D01*
X024618Y011439D01*
X025297Y011439D01*
X025444Y011378D01*
X025557Y011266D01*
X025618Y011119D01*
X025618Y010959D01*
X025557Y010812D01*
X025444Y010700D01*
X025297Y010639D01*
X024618Y010639D01*
X024471Y010700D01*
X024457Y010714D01*
X023380Y009456D01*
X023380Y009448D01*
X023308Y009373D02*
X033511Y009373D01*
X033511Y009215D02*
X018841Y009215D01*
X018841Y009373D02*
X021178Y009373D01*
X020866Y009532D02*
X018841Y009532D01*
X018822Y009690D02*
X020554Y009690D01*
X020241Y009849D02*
X018723Y009849D01*
X018158Y009849D02*
X017723Y009849D01*
X017822Y009690D02*
X018059Y009690D01*
X018041Y009532D02*
X017841Y009532D01*
X017841Y009373D02*
X018041Y009373D01*
X018041Y009215D02*
X017841Y009215D01*
X017841Y009056D02*
X018041Y009056D01*
X018069Y008898D02*
X017812Y008898D01*
X017069Y008898D02*
X016812Y008898D01*
X016841Y009056D02*
X017041Y009056D01*
X017041Y009215D02*
X016841Y009215D01*
X016841Y009373D02*
X017041Y009373D01*
X017041Y009532D02*
X016841Y009532D01*
X016822Y009690D02*
X017059Y009690D01*
X017158Y009849D02*
X016723Y009849D01*
X016158Y009849D02*
X015723Y009849D01*
X015822Y009690D02*
X016059Y009690D01*
X016041Y009532D02*
X015841Y009532D01*
X015841Y009373D02*
X016041Y009373D01*
X016041Y009215D02*
X015841Y009215D01*
X015841Y009056D02*
X016041Y009056D01*
X016069Y008898D02*
X015812Y008898D01*
X015131Y007947D02*
X000727Y007947D01*
X000727Y008105D02*
X013791Y008105D01*
X013632Y008264D02*
X000727Y008264D01*
X000727Y008422D02*
X013474Y008422D01*
X013315Y008581D02*
X000727Y008581D01*
X000727Y008739D02*
X013182Y008739D01*
X013069Y008898D02*
X000727Y008898D01*
X000727Y009056D02*
X013041Y009056D01*
X013041Y009215D02*
X000727Y009215D01*
X000727Y009373D02*
X013041Y009373D01*
X013041Y009532D02*
X000727Y009532D01*
X000727Y009690D02*
X013059Y009690D01*
X013158Y009849D02*
X000727Y009849D01*
X000727Y010007D02*
X019786Y010007D01*
X019735Y010166D02*
X000727Y010166D01*
X000727Y010324D02*
X019771Y010324D01*
X020290Y010324D02*
X023597Y010324D01*
X023733Y010483D02*
X000727Y010483D01*
X000727Y010641D02*
X021002Y010641D01*
X021005Y010639D02*
X021113Y010594D01*
X021231Y010594D01*
X021339Y010639D01*
X021422Y010722D01*
X021467Y010830D01*
X021467Y010947D01*
X021422Y011056D01*
X021339Y011139D01*
X021231Y011184D01*
X021113Y011184D01*
X021053Y011159D01*
X020369Y011457D01*
X020339Y011528D01*
X020256Y011611D01*
X020148Y011656D01*
X020031Y011656D01*
X019922Y011611D01*
X019839Y011528D01*
X019794Y011420D01*
X019794Y011302D01*
X019839Y011194D01*
X019922Y011111D01*
X020031Y011066D01*
X020148Y011066D01*
X020208Y011091D01*
X020893Y010792D01*
X020922Y010722D01*
X021005Y010639D01*
X020876Y010800D02*
X000727Y010800D01*
X000727Y010958D02*
X020513Y010958D01*
X020787Y011275D02*
X024368Y011275D01*
X024298Y011117D02*
X021361Y011117D01*
X021463Y010958D02*
X024140Y010958D01*
X024004Y010800D02*
X021454Y010800D01*
X021342Y010641D02*
X023868Y010641D01*
X024259Y010483D02*
X033511Y010483D01*
X033511Y010641D02*
X025302Y010641D01*
X025297Y010439D02*
X025444Y010378D01*
X025557Y010266D01*
X025618Y010119D01*
X025618Y009959D01*
X025557Y009812D01*
X025444Y009700D01*
X025297Y009639D01*
X024618Y009639D01*
X024471Y009700D01*
X024358Y009812D01*
X024298Y009959D01*
X024298Y010119D01*
X024358Y010266D01*
X024471Y010378D01*
X024618Y010439D01*
X025297Y010439D01*
X025498Y010324D02*
X033511Y010324D01*
X033511Y010166D02*
X025598Y010166D01*
X025618Y010007D02*
X033511Y010007D01*
X033511Y009849D02*
X025572Y009849D01*
X025420Y009690D02*
X033511Y009690D01*
X033511Y009532D02*
X023444Y009532D01*
X023580Y009690D02*
X024495Y009690D01*
X024344Y009849D02*
X023716Y009849D01*
X023852Y010007D02*
X024298Y010007D01*
X024317Y010166D02*
X023988Y010166D01*
X024124Y010324D02*
X024417Y010324D01*
X024395Y010641D02*
X024613Y010641D01*
X025544Y010800D02*
X033511Y010800D01*
X033511Y010958D02*
X025617Y010958D01*
X025618Y011117D02*
X033511Y011117D01*
X033511Y011275D02*
X025547Y011275D01*
X025310Y011434D02*
X033511Y011434D01*
X033511Y011592D02*
X020276Y011592D01*
X020423Y011434D02*
X024605Y011434D01*
X024618Y011639D02*
X025297Y011639D01*
X025444Y011700D01*
X025557Y011812D01*
X025618Y011959D01*
X025618Y012119D01*
X025557Y012266D01*
X025444Y012378D01*
X025297Y012439D01*
X024618Y012439D01*
X024471Y012378D01*
X024358Y012266D01*
X024298Y012119D01*
X024298Y011959D01*
X024358Y011812D01*
X024471Y011700D01*
X024618Y011639D01*
X024420Y011751D02*
X019711Y011751D01*
X019667Y011707D02*
X019780Y011819D01*
X019841Y011966D01*
X019841Y012645D01*
X019780Y012792D01*
X019667Y012905D01*
X019520Y012966D01*
X019361Y012966D01*
X019214Y012905D01*
X019102Y012792D01*
X019041Y012645D01*
X019041Y011966D01*
X019102Y011819D01*
X019214Y011707D01*
X019361Y011646D01*
X019520Y011646D01*
X019667Y011707D01*
X019817Y011909D02*
X024318Y011909D01*
X024298Y012068D02*
X019841Y012068D01*
X019841Y012226D02*
X024342Y012226D01*
X024486Y012385D02*
X019841Y012385D01*
X019841Y012543D02*
X033511Y012543D01*
X033511Y012385D02*
X025429Y012385D01*
X025573Y012226D02*
X033511Y012226D01*
X033511Y012068D02*
X025618Y012068D01*
X025597Y011909D02*
X033511Y011909D01*
X033511Y011751D02*
X025495Y011751D01*
X023461Y010166D02*
X020501Y010166D01*
X020813Y010007D02*
X023325Y010007D01*
X023189Y009849D02*
X021125Y009849D01*
X018841Y009056D02*
X033511Y009056D01*
X033511Y008898D02*
X018812Y008898D01*
X015313Y007630D02*
X000727Y007630D01*
X000727Y007788D02*
X015212Y007788D01*
X019917Y011117D02*
X000727Y011117D01*
X000727Y011275D02*
X019806Y011275D01*
X019800Y011434D02*
X000727Y011434D01*
X000727Y011592D02*
X019903Y011592D01*
X019170Y011751D02*
X018711Y011751D01*
X018667Y011707D02*
X018780Y011819D01*
X018841Y011966D01*
X018841Y012645D01*
X018780Y012792D01*
X018667Y012905D01*
X018520Y012966D01*
X018361Y012966D01*
X018214Y012905D01*
X018102Y012792D01*
X018041Y012645D01*
X018041Y011966D01*
X018102Y011819D01*
X018214Y011707D01*
X018361Y011646D01*
X018520Y011646D01*
X018667Y011707D01*
X018817Y011909D02*
X019064Y011909D01*
X019041Y012068D02*
X018841Y012068D01*
X018841Y012226D02*
X019041Y012226D01*
X019041Y012385D02*
X018841Y012385D01*
X018841Y012543D02*
X019041Y012543D01*
X019064Y012702D02*
X018817Y012702D01*
X018712Y012860D02*
X019169Y012860D01*
X019712Y012860D02*
X033511Y012860D01*
X033511Y012702D02*
X019817Y012702D01*
X018169Y012860D02*
X017712Y012860D01*
X017667Y012905D02*
X017520Y012966D01*
X017361Y012966D01*
X017214Y012905D01*
X017102Y012792D01*
X017041Y012645D01*
X017041Y011966D01*
X017102Y011819D01*
X017214Y011707D01*
X017361Y011646D01*
X017520Y011646D01*
X017667Y011707D01*
X017780Y011819D01*
X017841Y011966D01*
X017841Y012645D01*
X017780Y012792D01*
X017667Y012905D01*
X017817Y012702D02*
X018064Y012702D01*
X018041Y012543D02*
X017841Y012543D01*
X017841Y012385D02*
X018041Y012385D01*
X018041Y012226D02*
X017841Y012226D01*
X017841Y012068D02*
X018041Y012068D01*
X018064Y011909D02*
X017817Y011909D01*
X017711Y011751D02*
X018170Y011751D01*
X017170Y011751D02*
X016711Y011751D01*
X016667Y011707D02*
X016780Y011819D01*
X016841Y011966D01*
X016841Y012645D01*
X016780Y012792D01*
X016667Y012905D01*
X016520Y012966D01*
X016361Y012966D01*
X016214Y012905D01*
X016102Y012792D01*
X016041Y012645D01*
X016041Y011966D01*
X016102Y011819D01*
X016214Y011707D01*
X016361Y011646D01*
X016520Y011646D01*
X016667Y011707D01*
X016817Y011909D02*
X017064Y011909D01*
X017041Y012068D02*
X016841Y012068D01*
X016841Y012226D02*
X017041Y012226D01*
X017041Y012385D02*
X016841Y012385D01*
X016841Y012543D02*
X017041Y012543D01*
X017064Y012702D02*
X016817Y012702D01*
X016712Y012860D02*
X017169Y012860D01*
X016169Y012860D02*
X015712Y012860D01*
X015667Y012905D02*
X015520Y012966D01*
X015361Y012966D01*
X015214Y012905D01*
X015102Y012792D01*
X015041Y012645D01*
X015041Y011966D01*
X015102Y011819D01*
X015214Y011707D01*
X015361Y011646D01*
X015520Y011646D01*
X015667Y011707D01*
X015780Y011819D01*
X015841Y011966D01*
X015841Y012645D01*
X015780Y012792D01*
X015667Y012905D01*
X015817Y012702D02*
X016064Y012702D01*
X016041Y012543D02*
X015841Y012543D01*
X015841Y012385D02*
X016041Y012385D01*
X016041Y012226D02*
X015841Y012226D01*
X015841Y012068D02*
X016041Y012068D01*
X016064Y011909D02*
X015817Y011909D01*
X015711Y011751D02*
X016170Y011751D01*
X015170Y011751D02*
X014711Y011751D01*
X014667Y011707D02*
X014780Y011819D01*
X014841Y011966D01*
X014841Y012645D01*
X014780Y012792D01*
X014667Y012905D01*
X014520Y012966D01*
X014361Y012966D01*
X014214Y012905D01*
X014102Y012792D01*
X014041Y012645D01*
X014041Y011966D01*
X014102Y011819D01*
X014214Y011707D01*
X014361Y011646D01*
X014520Y011646D01*
X014667Y011707D01*
X014817Y011909D02*
X015064Y011909D01*
X015041Y012068D02*
X014841Y012068D01*
X014841Y012226D02*
X015041Y012226D01*
X015041Y012385D02*
X014841Y012385D01*
X014841Y012543D02*
X015041Y012543D01*
X015064Y012702D02*
X014817Y012702D01*
X014712Y012860D02*
X015169Y012860D01*
X014169Y012860D02*
X013712Y012860D01*
X013667Y012905D02*
X013520Y012966D01*
X013361Y012966D01*
X013214Y012905D01*
X013102Y012792D01*
X013041Y012645D01*
X013041Y011966D01*
X013102Y011819D01*
X013214Y011707D01*
X013361Y011646D01*
X013520Y011646D01*
X013667Y011707D01*
X013780Y011819D01*
X013841Y011966D01*
X013841Y012645D01*
X013780Y012792D01*
X013667Y012905D01*
X013539Y013019D02*
X033511Y013019D01*
X033511Y013177D02*
X013657Y013177D01*
X013669Y013336D02*
X033511Y013336D01*
X033511Y013494D02*
X013577Y013494D01*
X013577Y013653D02*
X033511Y013653D01*
X033511Y013811D02*
X013577Y013811D01*
X013577Y013970D02*
X033511Y013970D01*
X033511Y014128D02*
X013577Y014128D01*
X013577Y014287D02*
X033511Y014287D01*
X033511Y014445D02*
X013577Y014445D01*
X013177Y014445D02*
X000727Y014445D01*
X000727Y014287D02*
X013177Y014287D01*
X013177Y014128D02*
X000727Y014128D01*
X000727Y013970D02*
X013177Y013970D01*
X013177Y013811D02*
X000727Y013811D01*
X000727Y013653D02*
X013177Y013653D01*
X013177Y013494D02*
X000727Y013494D01*
X000727Y013336D02*
X013084Y013336D01*
X013096Y013177D02*
X000727Y013177D01*
X000727Y013019D02*
X013214Y013019D01*
X013169Y012860D02*
X000727Y012860D01*
X000727Y012702D02*
X013064Y012702D01*
X013041Y012543D02*
X000727Y012543D01*
X000727Y012385D02*
X013041Y012385D01*
X013041Y012226D02*
X000727Y012226D01*
X000727Y012068D02*
X013041Y012068D01*
X013064Y011909D02*
X000727Y011909D01*
X000727Y011751D02*
X013170Y011751D01*
X013711Y011751D02*
X014170Y011751D01*
X014064Y011909D02*
X013817Y011909D01*
X013841Y012068D02*
X014041Y012068D01*
X014041Y012226D02*
X013841Y012226D01*
X013841Y012385D02*
X014041Y012385D01*
X014041Y012543D02*
X013841Y012543D01*
X013817Y012702D02*
X014064Y012702D01*
X013177Y014604D02*
X000727Y014604D01*
X000989Y002716D02*
X033511Y002716D01*
X033511Y002558D02*
X000989Y002558D01*
M02*
