%
M48
M72
T01C0.0150
T02C0.0320
T03C0.0360
T04C0.0520
%
T01
X1995Y1397
X3255Y1247
X3465Y1597
X4814Y1125
X5522Y1361
X9244Y3071
X9244Y3665
X9744Y3565
X9244Y4237
X8338Y4646
X7866Y4646
X11824Y5515
X13970Y6578
X13970Y7149
X13989Y7700
X15503Y7857
X20030Y10180
X21172Y10889
X20089Y11361
X23576Y10949
X13377Y13271
X8496Y11969
X8102Y11969
X10149Y10630
X10149Y10237
X10149Y9213
X10149Y8819
X10149Y7874
X10149Y7481
X4634Y7364
X4241Y7364
X3552Y7364
X3158Y7364
X2863Y7660
X2863Y6971
X2469Y6577
X2863Y6478
X2075Y6380
X1681Y6577
X1288Y6380
X894Y6577
X789Y4729
X12334Y2678
X12649Y2678
X13279Y2835
X13673Y2835
X14067Y2835
X16389Y1223
X16979Y987
X17668Y967
X18259Y1263
X18018Y4920
X29611Y4900
X30111Y4900
X30611Y4900
X31111Y4900
X31111Y5400
X30611Y5400
X30111Y5400
X29611Y5400
X29611Y5900
X30111Y5900
X30611Y5900
X31111Y5900
X31111Y4400
X30611Y4400
X30111Y4400
X29611Y4400
X29611Y3900
X30111Y3900
X30611Y3900
X31111Y3900
X4781Y10821
X4481Y10571
X4111Y10571
X2887Y11126
X2631Y11421
X2218Y11559
X1745Y11441
X1274Y11559
X821Y11421
X3084Y13004
X3084Y13397
T02
X13441Y12306
X14441Y12306
X15441Y12306
X16441Y12306
X17441Y12306
X18441Y12306
X19441Y12306
X24958Y12039
X24958Y11039
X24958Y10039
X24958Y9039
X24958Y8039
X24958Y7039
X24958Y6039
X24958Y5039
X19441Y9306
X18441Y9306
X17441Y9306
X16441Y9306
X15441Y9306
X14441Y9306
X13441Y9306
T03
X15991Y5427
X15991Y4427
X15991Y3427
T04
X10483Y1755
X7727Y1853
M30
